<svg width="158" height="158" viewBox="0 0 158 158" fill="none" xmlns="http://www.w3.org/2000/svg">
<path d="M104.73 2.31581C81.2421 5.70647 71.2902 21.6263 71.2902 21.6263C70.0528 18.3766 68.4603 15.2725 66.5417 12.3699C66.4023 12.1645 66.202 12.0078 65.9687 11.9216C65.7354 11.8354 65.4809 11.8242 65.2408 11.8894C62.5537 12.7256 60.0568 14.0776 57.8907 15.8694C57.7676 15.9686 57.6657 16.0912 57.5907 16.2301C57.5157 16.369 57.4693 16.5213 57.454 16.6783C57.4388 16.8353 57.4551 16.9937 57.5019 17.1443C57.5488 17.295 57.6253 17.4348 57.7269 17.5557C61.4206 22.1275 64.424 27.2128 66.6417 32.6504C66.6552 32.6594 66.671 32.6642 66.6872 32.6642C66.7034 32.6642 66.7193 32.6594 66.7327 32.6504C70.686 32.053 74.6784 31.75 78.6768 31.7438H79.6956C81.4695 29.5318 88.6468 20.8103 94.9054 16.096C95.051 15.9746 95.2371 15.9123 95.4266 15.9215C95.6162 15.9307 95.7954 16.0107 95.9284 16.1456C96.0615 16.2805 96.1387 16.4604 96.1447 16.6494C96.1506 16.8385 96.0849 17.0228 95.9606 17.1658C92.8041 21.1548 88.6832 25.8419 84.4168 31.7982C84.4074 31.8125 84.4018 31.829 84.4005 31.846C84.3993 31.8631 84.4025 31.8802 84.4098 31.8957C84.4171 31.9112 84.4283 31.9245 84.4423 31.9344C84.4562 31.9443 84.4726 31.9505 84.4896 31.9524C88.7812 32.2633 93.0404 32.9212 97.2251 33.9197C97.2378 33.926 97.2518 33.9294 97.266 33.9294C97.2803 33.9294 97.2943 33.926 97.307 33.9197C107.313 25.2798 109.06 12.8142 109.206 6.24136C109.211 5.67759 109.094 5.11929 108.864 4.60447C108.633 4.08964 108.294 3.63037 107.869 3.25789C107.444 2.8854 106.944 2.60846 106.403 2.4459C105.861 2.28334 105.29 2.23896 104.73 2.31581V2.31581Z" fill="#DBDBDB"/>
<path d="M78.6947 36.0955C43.745 36.0955 15.3994 60.3106 15.3994 90.1828C15.3994 108.641 26.2246 124.933 42.7443 134.697L37.7684 151.496C37.573 152.153 37.5776 152.853 37.7817 153.508C37.9858 154.162 38.3802 154.742 38.9149 155.173C39.4497 155.604 40.1007 155.867 40.7857 155.929C41.4706 155.991 42.1586 155.849 42.7625 155.521L65.7409 143.155C70.0184 143.897 74.3531 144.261 78.6947 144.243C113.654 144.243 141.999 120.028 141.999 90.1556C141.999 60.2834 113.654 36.0955 78.6947 36.0955Z" fill="#DBDBDB"/>
<path d="M62.5117 74.8593V94.0338H66.4214V98.7338H62.5117V106.262H57.4789V98.7338H42.7549V94.0754C45.195 90.8866 47.5936 87.6839 49.9505 84.4673C52.3075 81.2508 54.706 78.0481 57.1461 74.8593H62.5117ZM57.4789 94.117V84.4258C57.4789 84.2317 57.4789 83.885 57.4789 83.3859C57.5066 82.8868 57.5343 82.36 57.5621 81.8054L48.4116 94.117H57.4789Z" fill="white"/>
<path d="M90.6164 90.8311C90.6164 93.5763 90.3252 95.9609 89.7429 97.9851C89.1606 99.9816 88.3426 101.645 87.2889 102.976C86.2629 104.28 85.0429 105.25 83.6287 105.888C82.2145 106.526 80.6756 106.845 79.0118 106.845C77.4036 106.845 75.8923 106.526 74.4782 105.888C73.0917 105.25 71.8717 104.28 70.818 102.976C69.792 101.645 68.9879 99.9816 68.4056 97.9851C67.8233 95.9609 67.5321 93.5763 67.5321 90.8311C67.5321 88.0582 67.8233 85.6736 68.4056 83.6771C68.9879 81.6529 69.792 79.9891 70.818 78.6859C71.8717 77.3549 73.0917 76.3705 74.4782 75.7328C75.8923 75.095 77.4036 74.7761 79.0118 74.7761C80.6756 74.7761 82.2145 75.095 83.6287 75.7328C85.0429 76.3705 86.2629 77.3549 87.2889 78.6859C88.3426 79.9891 89.1606 81.6529 89.7429 83.6771C90.3252 85.6736 90.6164 88.0582 90.6164 90.8311ZM84.7933 90.8311C84.7933 88.6128 84.6269 86.7827 84.2942 85.3408C83.9892 83.8712 83.5732 82.7204 83.0464 81.8886C82.5195 81.029 81.8956 80.4328 81.1747 80.1001C80.4815 79.7396 79.7605 79.5593 79.0118 79.5593C78.2909 79.5593 77.5838 79.7396 76.8906 80.1001C76.2251 80.4328 75.6289 81.029 75.1021 81.8886C74.5752 82.7204 74.1454 83.8712 73.8127 85.3408C73.5077 86.7827 73.3552 88.6128 73.3552 90.8311C73.3552 93.0217 73.5077 94.8379 73.8127 96.2798C74.1454 97.7217 74.5752 98.8725 75.1021 99.7321C75.6289 100.592 76.2251 101.188 76.8906 101.521C77.5838 101.853 78.2909 102.02 79.0118 102.02C79.7605 102.02 80.4815 101.853 81.1747 101.521C81.8956 101.188 82.5195 100.592 83.0464 99.7321C83.5732 98.8725 83.9892 97.7217 84.2942 96.2798C84.6269 94.8379 84.7933 93.0217 84.7933 90.8311Z" fill="white"/>
<path d="M112.066 74.8593V94.0338H115.976V98.7338H112.066V106.262H107.033V98.7338H92.3093V94.0754C94.7495 90.8866 97.148 87.6839 99.505 84.4673C101.862 81.2508 104.26 78.0481 106.701 74.8593H112.066ZM107.033 94.117V84.4258C107.033 84.2317 107.033 83.885 107.033 83.3859C107.061 82.8868 107.089 82.36 107.117 81.8054L97.966 94.117H107.033Z" fill="white"/>
<path d="M48.0572 54C47.8406 56 48.1222 60 50.9807 60C53.8393 60 54.229 56 53.9042 54" stroke="white" stroke-width="2" stroke-linecap="round"/>
<path d="M36.0572 65C35.8406 67 36.1222 71 38.9807 71C41.8393 71 42.229 67 41.9042 65" stroke="white" stroke-width="2" stroke-linecap="round"/>
</svg>
