<svg width="24" height="24" viewBox="0 0 24 24" fill="none" xmlns="http://www.w3.org/2000/svg">
<path d="M20.9999 12.2069C20.9999 11.6015 20.9463 11.0268 20.8543 10.4674H12.1953V13.9234H17.1532C16.9309 15.0575 16.2796 16.0153 15.3141 16.6667V18.9655H18.2719C20.0037 17.364 20.9999 15.0038 20.9999 12.2069Z" fill="#4285F4"/>
<path d="M12.1952 21.1954C14.6779 21.1954 16.7546 20.3678 18.2718 18.9655L15.3139 16.6667C14.4864 17.2184 13.4366 17.5556 12.1952 17.5556C9.79671 17.5556 7.76606 15.9387 7.03809 13.7548H3.98828V16.1226C5.49786 19.1265 8.60131 21.1954 12.1952 21.1954Z" fill="#34A853"/>
<path d="M7.03831 13.7548C6.84674 13.203 6.74712 12.613 6.74712 12C6.74712 11.387 6.8544 10.7969 7.03831 10.2452V7.87738H3.9885C3.36015 9.11876 3 10.5134 3 12C3 13.4866 3.36015 14.8812 3.9885 16.1226L7.03831 13.7548Z" fill="#FBBC05"/>
<path d="M12.1952 6.44444C13.5515 6.44444 14.7622 6.91188 15.7201 7.82375L18.3408 5.20306C16.7546 3.71647 14.6779 2.8046 12.1952 2.8046C8.60131 2.8046 5.49786 4.87356 3.98828 7.87739L7.03809 10.2452C7.76606 8.0613 9.79671 6.44444 12.1952 6.44444Z" fill="#EA4335"/>
</svg>
